<svg width="23" height="23" viewBox="0 0 23 23" fill="none" xmlns="http://www.w3.org/2000/svg">
<path d="M11.7419 13.2257H12.65C13.649 13.2257 14.4664 12.4084 14.4664 11.4094V2.32764H6.29281C4.93055 2.32764 3.74085 3.08141 3.12329 4.18938" stroke="#44BD32" stroke-width="1.86824" stroke-linecap="round" stroke-linejoin="round"/>
<path d="M2.66003 15.9503C2.66003 17.4578 3.87699 18.6748 5.38456 18.6748H6.29273C6.29273 17.6758 7.11009 16.8584 8.10908 16.8584C9.10807 16.8584 9.92543 17.6758 9.92543 18.6748H13.5581C13.5581 17.6758 14.3755 16.8584 15.3745 16.8584C16.3735 16.8584 17.1908 17.6758 17.1908 18.6748H18.099C19.6066 18.6748 20.8235 17.4578 20.8235 15.9503V13.2257H18.099C17.5995 13.2257 17.1908 12.8171 17.1908 12.3176V9.59305C17.1908 9.09356 17.5995 8.68488 18.099 8.68488H19.2705L17.7176 5.96945C17.3906 5.40638 16.7912 5.05219 16.1374 5.05219H14.4663V11.4094C14.4663 12.4084 13.6489 13.2257 12.6499 13.2257H11.7418" stroke="#44BD32" stroke-width="1.86824" stroke-linecap="round" stroke-linejoin="round"/>
<path d="M8.10919 20.4911C9.11234 20.4911 9.92554 19.6779 9.92554 18.6748C9.92554 17.6716 9.11234 16.8584 8.10919 16.8584C7.10605 16.8584 6.29285 17.6716 6.29285 18.6748C6.29285 19.6779 7.10605 20.4911 8.10919 20.4911Z" stroke="#44BD32" stroke-width="1.86824" stroke-linecap="round" stroke-linejoin="round"/>
<path d="M15.3745 20.4911C16.3776 20.4911 17.1908 19.6779 17.1908 18.6748C17.1908 17.6716 16.3776 16.8584 15.3745 16.8584C14.3713 16.8584 13.5581 17.6716 13.5581 18.6748C13.5581 19.6779 14.3713 20.4911 15.3745 20.4911Z" stroke="#44BD32" stroke-width="1.86824" stroke-linecap="round" stroke-linejoin="round"/>
<path d="M20.8236 11.4094V13.2257H18.0991C17.5996 13.2257 17.1909 12.817 17.1909 12.3175V9.59302C17.1909 9.09352 17.5996 8.68484 18.0991 8.68484H19.2706L20.8236 11.4094Z" stroke="#44BD32" stroke-width="1.86824" stroke-linecap="round" stroke-linejoin="round"/>
<path d="M2.66003 7.7767H8.10908" stroke="#44BD32" stroke-width="1.86824" stroke-linecap="round" stroke-linejoin="round"/>
<path d="M2.66003 10.5012H6.29273" stroke="#44BD32" stroke-width="1.86824" stroke-linecap="round" stroke-linejoin="round"/>
<path d="M2.66003 13.2257H4.47638" stroke="#44BD32" stroke-width="1.86824" stroke-linecap="round" stroke-linejoin="round"/>
</svg>
