<svg width="23" height="23" viewBox="0 0 23 23" fill="none" xmlns="http://www.w3.org/2000/svg">
<path d="M7.50684 17.1763L10.3222 19.3559C10.6854 19.7192 11.5028 19.9008 12.0477 19.9008H15.4988C16.5886 19.9008 17.7692 19.0834 18.0417 17.9936L20.2213 11.364C20.6754 10.0925 19.858 9.00271 18.4957 9.00271H14.863C14.3181 9.00271 13.8641 8.54862 13.9549 7.9129L14.409 5.00674C14.5906 4.18938 14.0457 3.28121 13.2283 3.00876C12.5018 2.73631 11.5936 3.09958 11.2303 3.64448L7.50684 9.18434" stroke="#44BD32" stroke-width="1.86824" stroke-miterlimit="10"/>
<path d="M2.87524 17.1763V8.27619C2.87524 7.00475 3.42015 6.55066 4.69159 6.55066H5.59977C6.87121 6.55066 7.41611 7.00475 7.41611 8.27619V17.1763C7.41611 18.4477 6.87121 18.9018 5.59977 18.9018H4.69159C3.42015 18.9018 2.87524 18.4477 2.87524 17.1763Z" stroke="#44BD32" stroke-width="1.86824" stroke-linecap="round" stroke-linejoin="round"/>
</svg>
