<svg width="23" height="23" viewBox="0 0 23 23" fill="none" xmlns="http://www.w3.org/2000/svg">
<path d="M6.88501 8.92096L11.6983 11.7091L16.4753 8.93912" stroke="#44BD32" stroke-width="1.86824" stroke-linecap="round" stroke-linejoin="round"/>
<path d="M11.6981 16.6495V11.7" stroke="#44BD32" stroke-width="1.86824" stroke-linecap="round" stroke-linejoin="round"/>
<path d="M10.5722 6.2237L7.66608 7.84025C7.0122 8.20351 6.46729 9.12077 6.46729 9.87455V12.9533C6.46729 13.707 7.00311 14.6243 7.66608 14.9876L10.5722 16.6041C11.1898 16.9492 12.207 16.9492 12.8336 16.6041L15.7398 14.9876C16.3936 14.6243 16.9385 13.707 16.9385 12.9533V9.86548C16.9385 9.11169 16.4027 8.19443 15.7398 7.83116L12.8336 6.21461C12.207 5.86951 11.1898 5.86951 10.5722 6.2237Z" stroke="#44BD32" stroke-width="1.86824" stroke-linecap="round" stroke-linejoin="round"/>
<path d="M20.7807 14.1339C20.7807 17.6485 17.9381 20.4911 14.4235 20.4911L15.377 18.9018" stroke="#44BD32" stroke-width="1.86824" stroke-linecap="round" stroke-linejoin="round"/>
<path d="M2.61682 8.68491C2.61682 5.17028 5.45941 2.3277 8.97404 2.3277L8.02047 3.917" stroke="#44BD32" stroke-width="1.86824" stroke-linecap="round" stroke-linejoin="round"/>
</svg>
